# xmcd CD database file
#
# Track frame offsets:
#	182
#	12885
#	25235
#	40015
#	54365
#	66757
#	82520
#	93505
#	108382
#	126257
#
# Disc length: 1888 seconds
#
# Revision: 0
# Processed by: cddbd v1.5.1PL0 Copyright (c) Steve Scherf et al.
# Submitted via: CDex 1.51
#
DISCID=6f075e0a
DTITLE=Various Artist - Best of Jazz Vocals
DYEAR=1900
DGENRE=Jazz
TTITLE0=Ray Charles - When Your Lover Has Gone
TTITLE1=Mel Torme - Comin' Home Baby
TTITLE2=Chris Connor - Moon Ray
TTITLE3=Bobby Short - Rocks In My Bed
TTITLE4=Ruth Brown - It's Raining
TTITLE5=Joe Turner - Until The Real Things Comes Along
TTITLE6=Jackie Paris - Someone's Rocking My Dreamboat
TTITLE7=Betty Carter - 'Round Midnight
TTITLE8=LaVern Baker - Nobody Knows When You're Down And Out
TTITLE9=Aretha Franklin - Crazy He Calls Me
EXTD=
EXTT0=
EXTT1=
EXTT2=
EXTT3=
EXTT4=
EXTT5=
EXTT6=
EXTT7=
EXTT8=
EXTT9=
PLAYORDER=
